<svg width="16" height="16" viewBox="0 0 16 16" fill="none" xmlns="http://www.w3.org/2000/svg">
<path fill-rule="evenodd" clip-rule="evenodd" d="M3.5 2C2.67157 2 2 2.67157 2 3.5C2 4.32843 2.67157 5 3.5 5C4.32843 5 5 4.32843 5 3.5C5 2.67157 4.32843 2 3.5 2ZM0.5 3.5C0.5 1.84315 1.84315 0.5 3.5 0.5C5.15685 0.5 6.5 1.84315 6.5 3.5C6.5 4.89788 5.54392 6.07245 4.25 6.40549V14.75C4.25 15.1642 3.91421 15.5 3.5 15.5C3.08579 15.5 2.75 15.1642 2.75 14.75V6.40549C1.45608 6.07245 0.5 4.89788 0.5 3.5ZM8 3.5C8 3.08579 8.33579 2.75 8.75 2.75H11C11.5967 2.75 12.169 2.98705 12.591 3.40901C13.0129 3.83097 13.25 4.40326 13.25 5V9.59451C14.5439 9.92755 15.5 11.1021 15.5 12.5C15.5 14.1569 14.1569 15.5 12.5 15.5C10.8431 15.5 9.5 14.1569 9.5 12.5C9.5 11.1021 10.4561 9.92755 11.75 9.59451V5C11.75 4.80109 11.671 4.61032 11.5303 4.46967C11.3897 4.32902 11.1989 4.25 11 4.25H8.75C8.33579 4.25 8 3.91421 8 3.5ZM12.5 11C11.6716 11 11 11.6716 11 12.5C11 13.3284 11.6716 14 12.5 14C13.3284 14 14 13.3284 14 12.5C14 11.6716 13.3284 11 12.5 11Z" fill="#141414"/>
</svg>
