<svg width="18" height="18" viewBox="0 0 18 18" fill="none" xmlns="http://www.w3.org/2000/svg">
<path fill-rule="evenodd" clip-rule="evenodd" d="M13.1894 3.74994L6.96967 9.96967L8.03033 11.0303L14.25 4.81066V7.49994H15.75V2.99994C15.75 2.58573 15.4142 2.24994 15 2.24994H10.5V3.74994H13.1894ZM13.5 9V12C13.5 12.8284 12.8284 13.5 12 13.5H6C5.17157 13.5 4.5 12.8284 4.5 12V6C4.5 5.17157 5.17157 4.5 6 4.5H9V3H6C4.34315 3 3 4.34314 3 6V12C3 13.6568 4.34315 15 6 15H12C13.6569 15 15 13.6568 15 12V9H13.5Z" fill="#141414"/>
</svg>
