<svg width="16" height="15" viewBox="0 0 16 15" fill="none" xmlns="http://www.w3.org/2000/svg">
<path fill-rule="evenodd" clip-rule="evenodd" d="M7.1487 0.554994C7.48378 -0.171448 8.51623 -0.171448 8.85131 0.554994L10.6212 4.39219L14.8176 4.88973C15.612 4.98392 15.931 5.96585 15.3437 6.50901L12.2412 9.37807L13.0648 13.5228C13.2207 14.3074 12.3854 14.9143 11.6874 14.5235L8 12.4595L4.31265 14.5235C3.61458 14.9143 2.77931 14.3074 2.93522 13.5228L3.75876 9.37807L0.656311 6.50901C0.068967 5.96585 0.388014 4.98392 1.18245 4.88973L5.37877 4.39219L7.1487 0.554994ZM8 2.29064L6.60898 5.30637C6.47242 5.60244 6.19184 5.80629 5.86806 5.84468L2.57007 6.23571L5.00836 8.49057C5.24773 8.71194 5.35491 9.04178 5.29136 9.36157L4.64412 12.619L7.54209 10.9968C7.8266 10.8376 8.17341 10.8376 8.45792 10.9968L11.3559 12.619L10.7086 9.36157C10.6451 9.04178 10.7523 8.71194 10.9916 8.49057L13.4299 6.23571L10.1319 5.84468C9.80817 5.80629 9.52759 5.60244 9.39103 5.30637L8 2.29064Z" fill="#141414"/>
</svg>
